<svg data-v-fde0c5aa="" xmlns="http://www.w3.org/2000/svg" viewBox="0 0 300 300" class="iconAbove"><!----><defs data-v-fde0c5aa=""><!----></defs><rect data-v-fde0c5aa="" fill="#002C73" x="0" y="0" width="300px" height="300px" class="logo-background-square"></rect><defs data-v-fde0c5aa=""><!----></defs><g data-v-fde0c5aa="" id="b1886a08-0383-45d1-8f1f-e6fc6748348b" fill="#ffffff" transform="matrix(4.266666889190674,0,0,4.266666889190674,19.1,164.36666666666665)"><path d="M2.98 13.51L2.98 5.45L0.21 5.45L0.21 3.71L7.55 3.71L7.55 5.45L4.77 5.45L4.77 13.51L2.98 13.51ZM8.57 5.45L8.57 3.71L10.30 3.71L10.30 5.45L8.57 5.45ZM8.57 13.51L8.57 6.51L10.30 6.51L10.30 13.51L8.57 13.51ZM15.18 13.65L15.18 13.65Q14.01 13.65 13.18 13.17L13.18 13.17L13.18 13.17Q12.35 12.68 11.93 11.86L11.93 11.86L11.93 11.86Q11.51 11.03 11.51 10.02L11.51 10.02L11.51 10.02Q11.51 9.00 11.93 8.17L11.93 8.17L11.93 8.17Q12.35 7.34 13.19 6.85L13.19 6.85L13.19 6.85Q14.03 6.37 15.23 6.37L15.23 6.37L15.23 6.37Q16.31 6.37 17.11 6.82L17.11 6.82L16.97 8.22L16.97 8.22Q16.21 7.83 15.40 7.83L15.40 7.83L15.40 7.83Q14.41 7.83 13.85 8.43L13.85 8.43L13.85 8.43Q13.29 9.03 13.29 10.02L13.29 10.02L13.29 10.02Q13.29 10.98 13.86 11.60L13.86 11.60L13.86 11.60Q14.43 12.22 15.39 12.22L15.39 12.22L15.39 12.22Q16.18 12.22 16.98 11.76L16.98 11.76L17.14 13.23L17.14 13.23Q16.76 13.43 16.25 13.54L16.25 13.54L16.25 13.54Q15.74 13.65 15.18 13.65L15.18 13.65ZM20.47 13.51L20.47 5.45L17.70 5.45L17.70 3.71L25.03 3.71L25.03 5.45L22.26 5.45L22.26 13.51L20.47 13.51ZM27.57 13.65L27.57 13.65Q26.70 13.65 26.12 13.08L26.12 13.08L26.12 13.08Q25.54 12.52 25.54 11.55L25.54 11.55L25.54 11.55Q25.54 10.64 26.19 10.09L26.19 10.09L26.19 10.09Q26.85 9.53 27.75 9.30L27.75 9.30L27.75 9.30Q28.64 9.07 29.47 9.04L29.47 9.04L29.47 9.04Q29.44 8.43 29.16 8.16L29.16 8.16L29.16 8.16Q28.87 7.90 28.21 7.90L28.21 7.90L28.21 7.90Q27.75 7.90 27.31 8.02L27.31 8.02L27.31 8.02Q26.87 8.15 26.29 8.43L26.29 8.43L26.14 7.01L26.14 7.01Q27.41 6.40 28.69 6.40L28.69 6.40L28.69 6.40Q29.92 6.40 30.57 7.07L30.57 7.07L30.57 7.07Q31.22 7.74 31.22 9.21L31.22 9.21L31.22 11.10L31.22 11.10Q31.22 11.63 31.27 11.87L31.27 11.87L31.27 11.87Q31.32 12.10 31.44 12.16L31.44 12.16L31.44 12.16Q31.56 12.22 31.84 12.22L31.84 12.22L32.06 12.22L31.91 13.65L31.28 13.65L31.28 13.65Q30.70 13.65 30.31 13.43L30.31 13.43L30.31 13.43Q29.92 13.22 29.71 12.84L29.71 12.84L29.71 12.84Q29.37 13.22 28.79 13.43L28.79 13.43L28.79 13.43Q28.21 13.65 27.57 13.65L27.57 13.65ZM28.29 12.32L28.29 12.32Q28.56 12.32 28.90 12.19L28.90 12.19L28.90 12.19Q29.23 12.05 29.48 11.82L29.48 11.82L29.48 10.22L29.48 10.22Q28.64 10.26 28 10.58L28 10.58L28 10.58Q27.36 10.91 27.36 11.48L27.36 11.48L27.36 11.48Q27.36 11.91 27.58 12.12L27.58 12.12L27.58 12.12Q27.80 12.32 28.29 12.32L28.29 12.32ZM36.27 13.65L36.27 13.65Q35.11 13.65 34.28 13.17L34.28 13.17L34.28 13.17Q33.45 12.68 33.03 11.86L33.03 11.86L33.03 11.86Q32.61 11.03 32.61 10.02L32.61 10.02L32.61 10.02Q32.61 9.00 33.03 8.17L33.03 8.17L33.03 8.17Q33.45 7.34 34.29 6.85L34.29 6.85L34.29 6.85Q35.13 6.37 36.33 6.37L36.33 6.37L36.33 6.37Q37.41 6.37 38.21 6.82L38.21 6.82L38.07 8.22L38.07 8.22Q37.31 7.83 36.50 7.83L36.50 7.83L36.50 7.83Q35.50 7.83 34.94 8.43L34.94 8.43L34.94 8.43Q34.38 9.03 34.38 10.02L34.38 10.02L34.38 10.02Q34.38 10.98 34.96 11.60L34.96 11.60L34.96 11.60Q35.53 12.22 36.48 12.22L36.48 12.22L36.48 12.22Q37.28 12.22 38.08 11.76L38.08 11.76L38.23 13.23L38.23 13.23Q37.86 13.43 37.34 13.54L37.34 13.54L37.34 13.54Q36.83 13.65 36.27 13.65L36.27 13.65ZM41.57 13.51L41.57 5.45L38.79 5.45L38.79 3.71L46.13 3.71L46.13 5.45L43.36 5.45L43.36 13.51L41.57 13.51ZM50.33 13.65L50.33 13.65Q49.22 13.65 48.41 13.16L48.41 13.16L48.41 13.16Q47.60 12.67 47.17 11.84L47.17 11.84L47.17 11.84Q46.73 11.02 46.73 10.02L46.73 10.02L46.73 10.02Q46.73 9.03 47.17 8.19L47.17 8.19L47.17 8.19Q47.60 7.35 48.41 6.86L48.41 6.86L48.41 6.86Q49.22 6.37 50.33 6.37L50.33 6.37L50.33 6.37Q51.44 6.37 52.25 6.86L52.25 6.86L52.25 6.86Q53.06 7.35 53.49 8.19L53.49 8.19L53.49 8.19Q53.93 9.03 53.93 10.02L53.93 10.02L53.93 10.02Q53.93 11.02 53.49 11.84L53.49 11.84L53.49 11.84Q53.06 12.67 52.25 13.16L52.25 13.16L52.25 13.16Q51.44 13.65 50.33 13.65L50.33 13.65ZM50.33 12.22L50.33 12.22Q51.18 12.22 51.67 11.62L51.67 11.62L51.67 11.62Q52.15 11.02 52.15 10.02L52.15 10.02L52.15 10.02Q52.15 9.02 51.67 8.41L51.67 8.41L51.67 8.41Q51.18 7.80 50.33 7.80L50.33 7.80L50.33 7.80Q49.48 7.80 48.99 8.41L48.99 8.41L48.99 8.41Q48.51 9.02 48.51 10.02L48.51 10.02L48.51 10.02Q48.51 11.02 48.99 11.62L48.99 11.62L48.99 11.62Q49.48 12.22 50.33 12.22L50.33 12.22ZM58.51 13.65L58.51 13.65Q57.29 13.65 56.43 13.15L56.43 13.15L56.43 13.15Q55.57 12.66 55.14 11.82L55.14 11.82L55.14 11.82Q54.71 10.99 54.71 9.97L54.71 9.97L54.71 9.97Q54.71 8.99 55.12 8.18L55.12 8.18L55.12 8.18Q55.52 7.36 56.29 6.88L56.29 6.88L56.29 6.88Q57.06 6.40 58.13 6.40L58.13 6.40L58.13 6.40Q59.11 6.40 59.79 6.80L59.79 6.80L59.79 6.80Q60.47 7.21 60.81 7.90L60.81 7.90L60.81 7.90Q61.15 8.58 61.15 9.44L61.15 9.44L61.15 9.44Q61.15 9.86 61.04 10.39L61.04 10.39L56.52 10.39L56.52 10.39Q56.66 11.31 57.25 11.77L57.25 11.77L57.25 11.77Q57.83 12.22 58.66 12.22L58.66 12.22L58.66 12.22Q59.79 12.22 60.76 11.65L60.76 11.65L60.84 13.12L60.84 13.12Q60.40 13.36 59.80 13.50L59.80 13.50L59.80 13.50Q59.21 13.65 58.51 13.65L58.51 13.65ZM56.56 9.21L59.39 9.21L59.39 9.21Q59.39 8.67 59.08 8.25L59.08 8.25L59.08 8.25Q58.77 7.83 58.13 7.83L58.13 7.83L58.13 7.83Q57.48 7.83 57.09 8.20L57.09 8.20L57.09 8.20Q56.70 8.58 56.56 9.21L56.56 9.21Z"></path></g><defs data-v-fde0c5aa=""><!----></defs><g data-v-fde0c5aa="" id="21624486-0b2d-486b-87a6-6aa1801392ff" stroke="none" fill="#FFD009" transform="matrix(2.135852098464966,0,0,2.135852098464966,97.7634002361275,65.73624557260922)"><path d="M34.628 14.072l2.608-2.608-2.608-2.608 1.516-1.516 2.607 2.608 2.608-2.608 1.516 1.516-2.608 2.608 2.608 2.608-1.516 1.516-2.608-2.608-2.607 2.608-1.516-1.516zm6.731 7.023l-2.608 2.608-2.607-2.608-1.516 1.516 2.608 2.607-2.608 2.608 1.516 1.516 2.607-2.608 2.608 2.608 1.516-1.516-2.608-2.608 2.608-2.607-1.516-1.516zm-28.231 14.16l-2.608 2.608-2.608-2.608-1.515 1.516 2.608 2.608-2.608 2.607 1.515 1.515 2.608-2.607 2.608 2.607 1.516-1.515-2.608-2.607 2.608-2.608-1.516-1.516zm29.82 9.908l-1.842-1.827a4.784 4.784 0 0 1-2.741.863 4.827 4.827 0 0 1-4.822-4.821c0-1.006.311-1.938.839-2.712l-1.638-1.624v9.597h-2.02V33.68H18.611v10.959h-2.02V33.68H5.633v-2.019h10.959V19.547H5.633v-2.019h9.455l-1.621-1.608a4.786 4.786 0 0 1-2.561.752 4.828 4.828 0 0 1-4.823-4.823c0-.929.276-1.789.733-2.526l-2.358-2.34 1.509-1.522 2.351 2.332a4.783 4.783 0 0 1 2.588-.767 4.828 4.828 0 0 1 4.823 4.823c0 .94-.281 1.811-.748 2.554l1.611 1.598V6.569h2.02v10.959h12.113V6.569h2.02v10.959h10.959v2.02h-10.96v12.114h10.959v2.019h-9.289l1.553 1.539a4.772 4.772 0 0 1 2.398-.664 4.829 4.829 0 0 1 4.823 4.823 4.75 4.75 0 0 1-.646 2.364l1.915 1.899-1.509 1.521zm-5.36-8.336l3.334 3.308c.072-.242.123-.492.123-.757a2.683 2.683 0 0 0-2.68-2.68c-.272 0-.529.053-.777.129zm-6.863-17.28H20.167l1.98 1.964a4.775 4.775 0 0 1 2.521-.73 4.827 4.827 0 0 1 4.822 4.823c0 .912-.27 1.757-.712 2.485l1.946 1.932V19.547zm-8.736 6.057a2.682 2.682 0 0 0 3.726 2.465l-3.52-3.492a2.663 2.663 0 0 0-.206 1.027zm5.192.9c.102-.283.166-.583.166-.9a2.681 2.681 0 0 0-2.679-2.679c-.325 0-.633.067-.921.173l3.434 3.406zM9.905 9.368l3.489 3.46c.12-.305.191-.633.191-.979a2.682 2.682 0 0 0-2.679-2.679c-.355 0-.692.073-1.001.198zm1.969 4.972l-3.466-3.438a2.662 2.662 0 0 0-.181.947 2.682 2.682 0 0 0 2.679 2.679c.342 0 .667-.07.968-.188zm6.737 17.321h10.725l-2.039-2.024a4.793 4.793 0 0 1-2.629.789 4.827 4.827 0 0 1-4.823-4.822c0-.956.288-1.843.77-2.593l-2.003-1.988v10.638zm20.923 10.115l-3.578-3.549a2.63 2.63 0 0 0-.271 1.15 2.682 2.682 0 0 0 2.68 2.678c.421.001.815-.105 1.169-.279z"></path></g><!----></svg>