<svg data-v-423bf9ae="" xmlns="http://www.w3.org/2000/svg" viewBox="0 0 60.44864226682408 60" class="icon"><!----><!----><!----><!----><g data-v-423bf9ae="" id="b2baf4bb-25a8-4528-bc38-c375ff495f11" transform="matrix(1.5112160444259644,0,0,1.5112160444259644,-6.735536575317383,-8.252655982971191)" stroke="none" fill="black"><path d="M34.628 14.072l2.608-2.608-2.608-2.608 1.516-1.516 2.607 2.608 2.608-2.608 1.516 1.516-2.608 2.608 2.608 2.608-1.516 1.516-2.608-2.608-2.607 2.608-1.516-1.516zm6.731 7.023l-2.608 2.608-2.607-2.608-1.516 1.516 2.608 2.607-2.608 2.608 1.516 1.516 2.607-2.608 2.608 2.608 1.516-1.516-2.608-2.608 2.608-2.607-1.516-1.516zm-28.231 14.16l-2.608 2.608-2.608-2.608-1.515 1.516 2.608 2.608-2.608 2.607 1.515 1.515 2.608-2.607 2.608 2.607 1.516-1.515-2.608-2.607 2.608-2.608-1.516-1.516zm29.82 9.908l-1.842-1.827a4.784 4.784 0 0 1-2.741.863 4.827 4.827 0 0 1-4.822-4.821c0-1.006.311-1.938.839-2.712l-1.638-1.624v9.597h-2.02V33.68H18.611v10.959h-2.02V33.68H5.633v-2.019h10.959V19.547H5.633v-2.019h9.455l-1.621-1.608a4.786 4.786 0 0 1-2.561.752 4.828 4.828 0 0 1-4.823-4.823c0-.929.276-1.789.733-2.526l-2.358-2.34 1.509-1.522 2.351 2.332a4.783 4.783 0 0 1 2.588-.767 4.828 4.828 0 0 1 4.823 4.823c0 .94-.281 1.811-.748 2.554l1.611 1.598V6.569h2.02v10.959h12.113V6.569h2.02v10.959h10.959v2.02h-10.96v12.114h10.959v2.019h-9.289l1.553 1.539a4.772 4.772 0 0 1 2.398-.664 4.829 4.829 0 0 1 4.823 4.823 4.75 4.75 0 0 1-.646 2.364l1.915 1.899-1.509 1.521zm-5.36-8.336l3.334 3.308c.072-.242.123-.492.123-.757a2.683 2.683 0 0 0-2.68-2.68c-.272 0-.529.053-.777.129zm-6.863-17.28H20.167l1.98 1.964a4.775 4.775 0 0 1 2.521-.73 4.827 4.827 0 0 1 4.822 4.823c0 .912-.27 1.757-.712 2.485l1.946 1.932V19.547zm-8.736 6.057a2.682 2.682 0 0 0 3.726 2.465l-3.52-3.492a2.663 2.663 0 0 0-.206 1.027zm5.192.9c.102-.283.166-.583.166-.9a2.681 2.681 0 0 0-2.679-2.679c-.325 0-.633.067-.921.173l3.434 3.406zM9.905 9.368l3.489 3.46c.12-.305.191-.633.191-.979a2.682 2.682 0 0 0-2.679-2.679c-.355 0-.692.073-1.001.198zm1.969 4.972l-3.466-3.438a2.662 2.662 0 0 0-.181.947 2.682 2.682 0 0 0 2.679 2.679c.342 0 .667-.07.968-.188zm6.737 17.321h10.725l-2.039-2.024a4.793 4.793 0 0 1-2.629.789 4.827 4.827 0 0 1-4.823-4.822c0-.956.288-1.843.77-2.593l-2.003-1.988v10.638zm20.923 10.115l-3.578-3.549a2.63 2.63 0 0 0-.271 1.15 2.682 2.682 0 0 0 2.68 2.678c.421.001.815-.105 1.169-.279z"></path></g><!----></svg>